<svg width="1440" height="569" viewBox="0 0 1440 569" fill="none" xmlns="http://www.w3.org/2000/svg">
<g clip-path="url(#clip0)">
<path fill-rule="evenodd" clip-rule="evenodd" d="M666 6.00005C665.204 6.00005 664.441 5.684 663.879 5.12139C663.316 4.55878 663 3.7957 663 3.00005C663 2.2044 663.316 1.44133 663.879 0.878716C664.441 0.316107 665.204 5.43355e-05 666 5.44051e-05C666.796 5.44746e-05 667.559 0.316108 668.121 0.878717C668.684 1.44133 669 2.20441 669 3.00005C669 3.7957 668.684 4.55878 668.121 5.12139C667.559 5.684 666.796 6.00005 666 6.00005ZM1289.5 11.0001C1289.1 11.0001 1288.72 10.8421 1288.44 10.5608C1288.16 10.2795 1288 9.89793 1288 9.50011C1288 9.10228 1288.16 8.72074 1288.44 8.43944C1288.72 8.15814 1289.1 8.00011 1289.5 8.00011C1289.9 8.00011 1290.28 8.15814 1290.56 8.43944C1290.84 8.72074 1291 9.10228 1291 9.50011C1291 9.89793 1290.84 10.2795 1290.56 10.5608C1290.28 10.8421 1289.9 11.0001 1289.5 11.0001ZM414.5 11C414.102 11 413.721 10.842 413.439 10.5607C413.158 10.2794 413 9.89786 413 9.50003C413 9.10221 413.158 8.72067 413.439 8.43936C413.721 8.15806 414.102 8.00003 414.5 8.00003C414.898 8.00003 415.279 8.15806 415.561 8.43936C415.842 8.72067 416 9.10221 416 9.50003C416 9.89786 415.842 10.2794 415.561 10.5607C415.279 10.842 414.898 11 414.5 11ZM937.5 14.0001C937.102 14.0001 936.721 13.8421 936.439 13.5607C936.158 13.2794 936 12.8979 936 12.5001C936 12.1023 936.158 11.7207 936.439 11.4394C936.721 11.1581 937.102 11.0001 937.5 11.0001C937.898 11.0001 938.279 11.1581 938.561 11.4394C938.842 11.7207 939 12.1023 939 12.5001C939 12.8979 938.842 13.2794 938.561 13.5607C938.279 13.8421 937.898 14.0001 937.5 14.0001ZM704.5 21.0001C704.102 21.0001 703.721 20.842 703.439 20.5607C703.158 20.2794 703 19.8979 703 19.5001C703 19.1022 703.158 18.7207 703.439 18.4394C703.721 18.1581 704.102 18.0001 704.5 18.0001C704.898 18.0001 705.279 18.1581 705.561 18.4394C705.842 18.7207 706 19.1022 706 19.5001C706 19.8979 705.842 20.2794 705.561 20.5607C705.279 20.842 704.898 21.0001 704.5 21.0001ZM1262 27.0001C1261.2 27.0001 1260.44 26.6841 1259.88 26.1214C1259.32 25.5588 1259 24.7958 1259 24.0001C1259 23.2045 1259.32 22.4414 1259.88 21.8788C1260.44 21.3162 1261.2 21.0001 1262 21.0001C1262.8 21.0001 1263.56 21.3162 1264.12 21.8788C1264.68 22.4414 1265 23.2045 1265 24.0001C1265 24.7958 1264.68 25.5588 1264.12 26.1214C1263.56 26.6841 1262.8 27.0001 1262 27.0001ZM134.5 25C134.102 25 133.721 24.842 133.439 24.5607C133.158 24.2794 133 23.8978 133 23.5C133 23.1022 133.158 22.7206 133.439 22.4393C133.721 22.158 134.102 22 134.5 22C134.898 22 135.279 22.158 135.561 22.4393C135.842 22.7206 136 23.1022 136 23.5C136 23.8978 135.842 24.2794 135.561 24.5607C135.279 24.842 134.898 25 134.5 25ZM89 35C88.2044 35 87.4413 34.684 86.8787 34.1213C86.3161 33.5587 86 32.7957 86 32C86 31.2044 86.3161 30.4413 86.8787 29.8787C87.4413 29.3161 88.2044 29 89 29C89.7957 29 90.5588 29.3161 91.1214 29.8787C91.684 30.4413 92 31.2044 92 32C92 32.7957 91.684 33.5587 91.1214 34.1213C90.5588 34.684 89.7957 35 89 35ZM654.5 38.0001C654.102 38.0001 653.721 37.842 653.439 37.5607C653.158 37.2794 653 36.8979 653 36.5001C653 36.1022 653.158 35.7207 653.439 35.4394C653.721 35.1581 654.102 35.0001 654.5 35.0001C654.898 35.0001 655.279 35.1581 655.561 35.4394C655.842 35.7207 656 36.1022 656 36.5001C656 36.8979 655.842 37.2794 655.561 37.5607C655.279 37.842 654.898 38.0001 654.5 38.0001ZM1438.5 53.0001C1438.1 53.0001 1437.72 52.8421 1437.44 52.5608C1437.16 52.2795 1437 51.8979 1437 51.5001C1437 51.1023 1437.16 50.7208 1437.44 50.4395C1437.72 50.1581 1438.1 50.0001 1438.5 50.0001C1438.9 50.0001 1439.28 50.1581 1439.56 50.4395C1439.84 50.7208 1440 51.1023 1440 51.5001C1440 51.8979 1439.84 52.2795 1439.56 52.5608C1439.28 52.8421 1438.9 53.0001 1438.5 53.0001ZM1160 62.0001C1159.2 62.0001 1158.44 61.684 1157.88 61.1214C1157.32 60.5588 1157 59.7957 1157 59.0001C1157 58.2044 1157.32 57.4414 1157.88 56.8788C1158.44 56.3162 1159.2 56.0001 1160 56.0001C1160.8 56.0001 1161.56 56.3162 1162.12 56.8788C1162.68 57.4414 1163 58.2044 1163 59.0001C1163 59.7957 1162.68 60.5588 1162.12 61.1214C1161.56 61.684 1160.8 62.0001 1160 62.0001ZM952.5 92.0001C952.102 92.0001 951.721 91.8421 951.439 91.5607C951.158 91.2794 951 90.8979 951 90.5001C951 90.1023 951.158 89.7207 951.439 89.4394C951.721 89.1581 952.102 89.0001 952.5 89.0001C952.898 89.0001 953.279 89.1581 953.561 89.4394C953.842 89.7207 954 90.1023 954 90.5001C954 90.8979 953.842 91.2794 953.561 91.5607C953.279 91.8421 952.898 92.0001 952.5 92.0001ZM902.5 109C902.102 109 901.721 108.842 901.439 108.561C901.158 108.279 901 107.898 901 107.5C901 107.102 901.158 106.721 901.439 106.439C901.721 106.158 902.102 106 902.5 106C902.898 106 903.279 106.158 903.561 106.439C903.842 106.721 904 107.102 904 107.5C904 107.898 903.842 108.279 903.561 108.561C903.279 108.842 902.898 109 902.5 109ZM669.5 117C669.102 117 668.721 116.842 668.439 116.561C668.158 116.279 668 115.898 668 115.5C668 115.102 668.158 114.721 668.439 114.439C668.721 114.158 669.102 114 669.5 114C669.898 114 670.279 114.158 670.561 114.439C670.842 114.721 671 115.102 671 115.5C671 115.898 670.842 116.279 670.561 116.561C670.279 116.842 669.898 117 669.5 117ZM204.5 139C204.102 139 203.721 138.842 203.439 138.561C203.158 138.279 203 137.898 203 137.5C203 137.102 203.158 136.721 203.439 136.439C203.721 136.158 204.102 136 204.5 136C204.898 136 205.279 136.158 205.561 136.439C205.842 136.721 206 137.102 206 137.5C206 137.898 205.842 138.279 205.561 138.561C205.279 138.842 204.898 139 204.5 139ZM903.5 145C903.102 145 902.721 144.842 902.439 144.561C902.158 144.279 902 143.898 902 143.5C902 143.102 902.158 142.721 902.439 142.439C902.721 142.158 903.102 142 903.5 142C903.898 142 904.279 142.158 904.561 142.439C904.842 142.721 905 143.102 905 143.5C905 143.898 904.842 144.279 904.561 144.561C904.279 144.842 903.898 145 903.5 145ZM1368.5 167C1368.1 167 1367.72 166.842 1367.44 166.561C1367.16 166.279 1367 165.898 1367 165.5C1367 165.102 1367.16 164.721 1367.44 164.439C1367.72 164.158 1368.1 164 1368.5 164C1368.9 164 1369.28 164.158 1369.56 164.439C1369.84 164.721 1370 165.102 1370 165.5C1370 165.898 1369.84 166.279 1369.56 166.561C1369.28 166.842 1368.9 167 1368.5 167ZM203.5 175C203.102 175 202.721 174.842 202.439 174.561C202.158 174.279 202 173.898 202 173.5C202 173.102 202.158 172.721 202.439 172.439C202.721 172.158 203.102 172 203.5 172C203.898 172 204.279 172.158 204.561 172.439C204.842 172.721 205 173.102 205 173.5C205 173.898 204.842 174.279 204.561 174.561C204.279 174.842 203.898 175 203.5 175ZM253.5 192C253.102 192 252.721 191.842 252.439 191.561C252.158 191.279 252 190.898 252 190.5C252 190.102 252.158 189.721 252.439 189.439C252.721 189.158 253.102 189 253.5 189C253.898 189 254.279 189.158 254.561 189.439C254.842 189.721 255 190.102 255 190.5C255 190.898 254.842 191.279 254.561 191.561C254.279 191.842 253.898 192 253.5 192ZM1190 224C1189.2 224 1188.44 223.684 1187.88 223.121C1187.32 222.559 1187 221.796 1187 221C1187 220.204 1187.32 219.441 1187.88 218.879C1188.44 218.316 1189.2 218 1190 218C1190.8 218 1191.56 218.316 1192.12 218.879C1192.68 219.441 1193 220.204 1193 221C1193 221.796 1192.68 222.559 1192.12 223.121C1191.56 223.684 1190.8 224 1190 224ZM739.5 231C739.102 231 738.721 230.842 738.439 230.561C738.158 230.279 738 229.898 738 229.5C738 229.102 738.158 228.721 738.439 228.439C738.721 228.158 739.102 228 739.5 228C739.898 228 740.279 228.158 740.561 228.439C740.842 228.721 741 229.102 741 229.5C741 229.898 740.842 230.279 740.561 230.561C740.279 230.842 739.898 231 739.5 231ZM1353.5 246C1353.1 246 1352.72 245.842 1352.44 245.561C1352.16 245.279 1352 244.898 1352 244.5C1352 244.102 1352.16 243.721 1352.44 243.439C1352.72 243.158 1353.1 243 1353.5 243C1353.9 243 1354.28 243.158 1354.56 243.439C1354.84 243.721 1355 244.102 1355 244.5C1355 244.898 1354.84 245.279 1354.56 245.561C1354.28 245.842 1353.9 246 1353.5 246ZM833.5 259C833.102 259 832.721 258.842 832.439 258.561C832.158 258.279 832 257.898 832 257.5C832 257.102 832.158 256.721 832.439 256.439C832.721 256.158 833.102 256 833.5 256C833.898 256 834.279 256.158 834.561 256.439C834.842 256.721 835 257.102 835 257.5C835 257.898 834.842 258.279 834.561 258.561C834.279 258.842 833.898 259 833.5 259ZM1403.5 263C1403.1 263 1402.72 262.842 1402.44 262.561C1402.16 262.279 1402 261.898 1402 261.5C1402 261.102 1402.16 260.721 1402.44 260.439C1402.72 260.158 1403.1 260 1403.5 260C1403.9 260 1404.28 260.158 1404.56 260.439C1404.84 260.721 1405 261.102 1405 261.5C1405 261.898 1404.84 262.279 1404.56 262.561C1404.28 262.842 1403.9 263 1403.5 263ZM234 270C233.204 270 232.441 269.684 231.879 269.121C231.316 268.559 231 267.796 231 267C231 266.204 231.316 265.441 231.879 264.879C232.441 264.316 233.204 264 234 264C234.796 264 235.559 264.316 236.121 264.879C236.684 265.441 237 266.204 237 267C237 267.796 236.684 268.559 236.121 269.121C235.559 269.684 234.796 270 234 270ZM238.5 270C238.102 270 237.721 269.842 237.439 269.561C237.158 269.279 237 268.898 237 268.5C237 268.102 237.158 267.721 237.439 267.439C237.721 267.158 238.102 267 238.5 267C238.898 267 239.279 267.158 239.561 267.439C239.842 267.721 240 268.102 240 268.5C240 268.898 239.842 269.279 239.561 269.561C239.279 269.842 238.898 270 238.5 270ZM1113.5 273C1113.1 273 1112.72 272.842 1112.44 272.561C1112.16 272.279 1112 271.898 1112 271.5C1112 271.102 1112.16 270.721 1112.44 270.439C1112.72 270.158 1113.1 270 1113.5 270C1113.9 270 1114.28 270.158 1114.56 270.439C1114.84 270.721 1115 271.102 1115 271.5C1115 271.898 1114.84 272.279 1114.56 272.561C1114.28 272.842 1113.9 273 1113.5 273ZM590.5 273C590.102 273 589.721 272.842 589.439 272.561C589.158 272.279 589 271.898 589 271.5C589 271.102 589.158 270.721 589.439 270.439C589.721 270.158 590.102 270 590.5 270C590.898 270 591.279 270.158 591.561 270.439C591.842 270.721 592 271.102 592 271.5C592 271.898 591.842 272.279 591.561 272.561C591.279 272.842 590.898 273 590.5 273ZM982.5 307C982.102 307 981.721 306.842 981.439 306.561C981.158 306.279 981 305.898 981 305.5C981 305.102 981.158 304.721 981.439 304.439C981.721 304.158 982.102 304 982.5 304C982.898 304 983.279 304.158 983.561 304.439C983.842 304.721 984 305.102 984 305.5C984 305.898 983.842 306.279 983.561 306.561C983.279 306.842 982.898 307 982.5 307ZM326.5 307C326.102 307 325.721 306.842 325.439 306.561C325.158 306.279 325 305.898 325 305.5C325 305.102 325.158 304.721 325.439 304.439C325.721 304.158 326.102 304 326.5 304C326.898 304 327.279 304.158 327.561 304.439C327.842 304.721 328 305.102 328 305.5C328 305.898 327.842 306.279 327.561 306.561C327.279 306.842 326.898 307 326.5 307ZM1334.5 310C1334.1 310 1333.72 309.842 1333.44 309.561C1333.16 309.279 1333 308.898 1333 308.5C1333 308.102 1333.16 307.721 1333.44 307.439C1333.72 307.158 1334.1 307 1334.5 307C1334.9 307 1335.28 307.158 1335.56 307.439C1335.84 307.721 1336 308.102 1336 308.5C1336 308.898 1335.84 309.279 1335.56 309.561C1335.28 309.842 1334.9 310 1334.5 310ZM36.5 317C36.1022 317 35.7207 316.842 35.4394 316.561C35.158 316.279 35 315.898 35 315.5C35 315.102 35.158 314.721 35.4394 314.439C35.7207 314.158 36.1022 314 36.5 314C36.8978 314 37.2794 314.158 37.5607 314.439C37.842 314.721 38 315.102 38 315.5C38 315.898 37.842 316.279 37.5607 316.561C37.2794 316.842 36.8978 317 36.5 317ZM606.5 321C606.102 321 605.721 320.842 605.439 320.561C605.158 320.279 605 319.898 605 319.5C605 319.102 605.158 318.721 605.439 318.439C605.721 318.158 606.102 318 606.5 318C606.898 318 607.279 318.158 607.561 318.439C607.842 318.721 608 319.102 608 319.5C608 319.898 607.842 320.279 607.561 320.561C607.279 320.842 606.898 321 606.5 321ZM86.5 334C86.1022 334 85.7207 333.842 85.4394 333.561C85.158 333.279 85 332.898 85 332.5C85 332.102 85.158 331.721 85.4394 331.439C85.7207 331.158 86.1022 331 86.5 331C86.8978 331 87.2794 331.158 87.5607 331.439C87.842 331.721 88 332.102 88 332.5C88 332.898 87.842 333.279 87.5607 333.561C87.2794 333.842 86.8978 334 86.5 334ZM232 343C231.204 343 230.441 342.684 229.879 342.121C229.316 341.559 229 340.796 229 340C229 339.204 229.316 338.441 229.879 337.879C230.441 337.316 231.204 337 232 337C232.796 337 233.559 337.316 234.121 337.879C234.684 338.441 235 339.204 235 340C235 340.796 234.684 341.559 234.121 342.121C233.559 342.684 232.796 343 232 343ZM833.5 349C833.102 349 832.721 348.842 832.439 348.561C832.158 348.279 832 347.898 832 347.5C832 347.102 832.158 346.721 832.439 346.439C832.721 346.158 833.102 346 833.5 346C833.898 346 834.279 346.158 834.561 346.439C834.842 346.721 835 347.102 835 347.5C835 347.898 834.842 348.279 834.561 348.561C834.279 348.842 833.898 349 833.5 349ZM334 378C333.606 378 333.216 377.922 332.852 377.772C332.488 377.621 332.157 377.4 331.879 377.121C331.6 376.843 331.379 376.512 331.228 376.148C331.078 375.784 331 375.394 331 375C331 374.606 331.078 374.216 331.228 373.852C331.379 373.488 331.6 373.157 331.879 372.879C332.157 372.6 332.488 372.379 332.852 372.228C333.216 372.078 333.606 372 334 372C334.796 372 335.559 372.316 336.121 372.879C336.684 373.441 337 374.204 337 375C337 375.796 336.684 376.559 336.121 377.121C335.559 377.684 334.796 378 334 378ZM1319.5 388C1319.1 388 1318.72 387.842 1318.44 387.561C1318.16 387.279 1318 386.898 1318 386.5C1318 386.102 1318.16 385.721 1318.44 385.439C1318.72 385.158 1319.1 385 1319.5 385C1319.9 385 1320.28 385.158 1320.56 385.439C1320.84 385.721 1321 386.102 1321 386.5C1321 386.898 1320.84 387.279 1320.56 387.561C1320.28 387.842 1319.9 388 1319.5 388ZM1369.5 405C1369.1 405 1368.72 404.842 1368.44 404.561C1368.16 404.279 1368 403.898 1368 403.5C1368 403.102 1368.16 402.721 1368.44 402.439C1368.72 402.158 1369.1 402 1369.5 402C1369.9 402 1370.28 402.158 1370.56 402.439C1370.84 402.721 1371 403.102 1371 403.5C1371 403.898 1370.84 404.279 1370.56 404.561C1370.28 404.842 1369.9 405 1369.5 405ZM71.5 413C71.1022 413 70.7206 412.842 70.4393 412.561C70.158 412.279 70 411.898 70 411.5C70 411.102 70.158 410.721 70.4393 410.439C70.7206 410.158 71.1022 410 71.5 410C71.8978 410 72.2794 410.158 72.5607 410.439C72.842 410.721 73 411.102 73 411.5C73 411.898 72.842 412.279 72.5607 412.561C72.2794 412.842 71.8978 413 71.5 413ZM536.5 435C536.102 435 535.721 434.842 535.439 434.561C535.158 434.279 535 433.898 535 433.5C535 433.102 535.158 432.721 535.439 432.439C535.721 432.158 536.102 432 536.5 432C536.898 432 537.279 432.158 537.561 432.439C537.842 432.721 538 433.102 538 433.5C538 433.898 537.842 434.279 537.561 434.561C537.279 434.842 536.898 435 536.5 435ZM1368.5 441C1368.1 441 1367.72 440.842 1367.44 440.561C1367.16 440.279 1367 439.898 1367 439.5C1367 439.102 1367.16 438.721 1367.44 438.439C1367.72 438.158 1368.1 438 1368.5 438C1368.9 438 1369.28 438.158 1369.56 438.439C1369.84 438.721 1370 439.102 1370 439.5C1370 439.898 1369.84 440.279 1369.56 440.561C1369.28 440.842 1368.9 441 1368.5 441ZM1335 459C1334.2 459 1333.44 458.684 1332.88 458.121C1332.32 457.559 1332 456.796 1332 456C1332 455.204 1332.32 454.441 1332.88 453.879C1333.44 453.316 1334.2 453 1335 453C1335.8 453 1336.56 453.316 1337.12 453.879C1337.68 454.441 1338 455.204 1338 456C1338 456.796 1337.68 457.559 1337.12 458.121C1336.56 458.684 1335.8 459 1335 459ZM903.5 463C903.102 463 902.721 462.842 902.439 462.561C902.158 462.279 902 461.898 902 461.5C902 461.102 902.158 460.721 902.439 460.439C902.721 460.158 903.102 460 903.5 460C903.898 460 904.279 460.158 904.561 460.439C904.842 460.721 905 461.102 905 461.5C905 461.898 904.842 462.279 904.561 462.561C904.279 462.842 903.898 463 903.5 463ZM537.5 471C537.102 471 536.721 470.842 536.439 470.561C536.158 470.279 536 469.898 536 469.5C536 469.102 536.158 468.721 536.439 468.439C536.721 468.158 537.102 468 537.5 468C537.898 468 538.279 468.158 538.561 468.439C538.842 468.721 539 469.102 539 469.5C539 469.898 538.842 470.279 538.561 470.561C538.279 470.842 537.898 471 537.5 471ZM487.5 488C487.102 488 486.721 487.842 486.439 487.561C486.158 487.279 486 486.898 486 486.5C486 486.102 486.158 485.721 486.439 485.439C486.721 485.158 487.102 485 487.5 485C487.898 485 488.279 485.158 488.561 485.439C488.842 485.721 489 486.102 489 486.5C489 486.898 488.842 487.279 488.561 487.561C488.279 487.842 487.898 488 487.5 488ZM1.5 527C1.10218 527 0.720639 526.842 0.439335 526.561C0.15803 526.279 3.76811e-06 525.898 3.80289e-06 525.5C3.83767e-06 525.102 0.15803 524.721 0.439335 524.439C0.72064 524.158 1.10218 524 1.5 524C1.89783 524 2.27937 524.158 2.56067 524.439C2.84198 524.721 3 525.102 3 525.5C3 525.898 2.84198 526.279 2.56067 526.561C2.27937 526.842 1.89783 527 1.5 527ZM304 540C303.204 540 302.441 539.684 301.879 539.121C301.316 538.559 301 537.796 301 537C301 536.204 301.316 535.441 301.879 534.879C302.441 534.316 303.204 534 304 534C304.796 534 305.559 534.316 306.121 534.879C306.684 535.441 307 536.204 307 537C307 537.796 306.684 538.559 306.121 539.121C305.559 539.684 304.796 540 304 540ZM918.5 542C918.102 542 917.721 541.842 917.439 541.561C917.158 541.279 917 540.898 917 540.5C917 540.102 917.158 539.721 917.439 539.439C917.721 539.158 918.102 539 918.5 539C918.898 539 919.279 539.158 919.561 539.439C919.842 539.721 920 540.102 920 540.5C920 540.898 919.842 541.279 919.561 541.561C919.279 541.842 918.898 542 918.5 542ZM1028 546C1027.2 546 1026.44 545.684 1025.88 545.121C1025.32 544.559 1025 543.796 1025 543C1025 542.204 1025.32 541.441 1025.88 540.879C1026.44 540.316 1027.2 540 1028 540C1028.8 540 1029.56 540.316 1030.12 540.879C1030.68 541.441 1031 542.204 1031 543C1031 543.796 1030.68 544.559 1030.12 545.121C1029.56 545.684 1028.8 546 1028 546ZM1438.5 555C1438.1 555 1437.72 554.842 1437.44 554.561C1437.16 554.279 1437 553.898 1437 553.5C1437 553.102 1437.16 552.721 1437.44 552.439C1437.72 552.158 1438.1 552 1438.5 552C1438.9 552 1439.28 552.158 1439.56 552.439C1439.84 552.721 1440 553.102 1440 553.5C1440 553.898 1439.84 554.279 1439.56 554.561C1439.28 554.842 1438.9 555 1438.5 555ZM868.5 559C868.102 559 867.721 558.842 867.439 558.561C867.158 558.279 867 557.898 867 557.5C867 557.102 867.158 556.721 867.439 556.439C867.721 556.158 868.102 556 868.5 556C868.898 556 869.279 556.158 869.561 556.439C869.842 556.721 870 557.102 870 557.5C870 557.898 869.842 558.279 869.561 558.561C869.279 558.842 868.898 559 868.5 559ZM502.5 566C502.102 566 501.721 565.842 501.439 565.561C501.158 565.279 501 564.898 501 564.5C501 564.102 501.158 563.721 501.439 563.439C501.721 563.158 502.102 563 502.5 563C502.898 563 503.279 563.158 503.561 563.439C503.842 563.721 504 564.102 504 564.5C504 564.898 503.842 565.279 503.561 565.561C503.279 565.842 502.898 566 502.5 566ZM1158.5 569C1158.1 569 1157.72 568.842 1157.44 568.561C1157.16 568.279 1157 567.898 1157 567.5C1157 567.102 1157.16 566.721 1157.44 566.439C1157.72 566.158 1158.1 566 1158.5 566C1158.9 566 1159.28 566.158 1159.56 566.439C1159.84 566.721 1160 567.102 1160 567.5C1160 567.898 1159.84 568.279 1159.56 568.561C1159.28 568.842 1158.9 569 1158.5 569ZM150.5 569C150.102 569 149.721 568.842 149.439 568.561C149.158 568.279 149 567.898 149 567.5C149 567.102 149.158 566.721 149.439 566.439C149.721 566.158 150.102 566 150.5 566C150.898 566 151.279 566.158 151.561 566.439C151.842 566.721 152 567.102 152 567.5C152 567.898 151.842 568.279 151.561 568.561C151.279 568.842 150.898 569 150.5 569Z" fill="#2C2835"/>
</g>
<defs>
<clipPath id="clip0">
<rect width="1440" height="569" fill="white" transform="translate(1440 569) rotate(-180)"/>
</clipPath>
</defs>
</svg>
