<svg width="1440" height="197" viewBox="0 0 1440 197" fill="none" xmlns="http://www.w3.org/2000/svg">
<mask id="mask0" mask-type="alpha" maskUnits="userSpaceOnUse" x="0" y="0" width="1440" height="197">
<path d="M0 0H1440V197H0V0Z" fill="white"/>
</mask>
<g mask="url(#mask0)">
<path fill-rule="evenodd" clip-rule="evenodd" d="M1394.3 1L1488.94 70.336L1538.99 20.887L1394.3 1ZM1137.28 42.576L1188.61 70.336L1269.21 64.91L1137.28 42.576ZM884 1L1041.47 84.151L1122.4 58.089L884 1ZM351.496 1L490.331 84.151L539.652 55.625L351.496 1Z" fill="#1A1823"/>
<path fill-rule="evenodd" clip-rule="evenodd" d="M0 84.151L351.496 1L490.331 84.151L562 42.576L884 1L1041.47 84.151L1137.28 42.576L1188.61 70.336L1394.3 1L1440 30.317V266H0V84.151Z" fill="#2F2439"/>
</g>
</svg>
